# xmcd CD database file
#
# Track frame offsets:
#	150
#	32942
#	56719
#	95705
#	111740
#	138567
#	163080
#	187287
#
# Disc length: 2891 seconds
#
# Revision: 1
# Processed by: cddbd v1.4PL0 Copyright (c) Steve Scherf et al.
# Submitted via: CDex 1.50
#
DISCID=820b4908
DTITLE=Donald Harrison Jr - Kind of New
DYEAR=2002
DGENRE=Jazz
TTITLE0=Kind of new
TTITLE1=Blue in green
TTITLE2=So what
TTITLE3=All blues
TTITLE4=Freddie Freeloader
TTITLE5=It is
TTITLE6=Flamenco sketches
TTITLE7=What next
EXTD=YEAR: 2002
EXTT0=
EXTT1=
EXTT2=
EXTT3=
EXTT4=
EXTT5=
EXTT6=
EXTT7=
PLAYORDER=
